<svg id="Слой_1" data-name="Слой 1" xmlns="http://www.w3.org/2000/svg" viewBox="0 0 155.906 143.651">
  <defs>
    <style>
      .cls-1 {
        fill: #eaeaea;
      }
    </style>
  </defs>
  <title>Hobbius logo grey</title>
  <g>
    <path class="cls-1" d="M44.6,122.471h0a12.582,12.582,0,0,0-11.8,13.088c0.206,4.654,3.322,9.352,9.821,9.353a17.849,17.849,0,0,0,5.741-1.058c7.687-2.635,9.634-8.255,8.965-12.268C56.59,127.2,52.313,122.471,44.6,122.471Zm9.919,9.583c0.509,3.058-1.084,7.057-7.085,9.115a15.037,15.037,0,0,1-4.821.9,6.593,6.593,0,0,1-6.983-6.639,9.743,9.743,0,0,1,9.12-10.13C50.724,125.313,53.961,128.7,54.52,132.054Z" transform="translate(-1.417 -1.422)"/>
    <path class="cls-1" d="M76.768,124.272a12.452,12.452,0,0,0-6.3-1.628,17.529,17.529,0,0,0-7.674,1.919c0.458-5.766.914-11.716-.237-16.794a1.41,1.41,0,0,0-1.383-1.106,1.438,1.438,0,0,0-.315.035,1.419,1.419,0,0,0-1.071,1.7c1.067,4.71.607,10.509,0.161,16.121-0.732,9.227-1.424,17.943,5.306,19.985a11.1,11.1,0,0,0,3.149.412,16.918,16.918,0,0,0,9.365-2.891,9.891,9.891,0,0,0,4.516-7.684A10.9,10.9,0,0,0,76.768,124.272Zm2.681,9.911a7.228,7.228,0,0,1-3.31,5.513,14.341,14.341,0,0,1-7.795,2.373,8.017,8.017,0,0,1-2.266-.286c-4.047-1.228-4-7.227-3.543-13.841a15.408,15.408,0,0,1,7.9-2.484,9.721,9.721,0,0,1,4.919,1.275A7.976,7.976,0,0,1,79.448,134.183Z" transform="translate(-1.417 -1.422)"/>
    <path class="cls-1" d="M100.677,124.272a12.444,12.444,0,0,0-6.3-1.628,17.524,17.524,0,0,0-7.674,1.919c0.456-5.766.914-11.716-.238-16.793a1.41,1.41,0,0,0-1.383-1.107,1.445,1.445,0,0,0-.315.035,1.421,1.421,0,0,0-1.071,1.7c1.068,4.71.608,10.509,0.162,16.121-0.733,9.227-1.425,17.942,5.306,19.985a11.1,11.1,0,0,0,3.148.412,16.92,16.92,0,0,0,9.366-2.891,9.892,9.892,0,0,0,4.515-7.684A10.9,10.9,0,0,0,100.677,124.272Zm2.68,9.911a7.22,7.22,0,0,1-3.31,5.513,14.338,14.338,0,0,1-7.793,2.373,8.027,8.027,0,0,1-2.267-.286c-4.048-1.228-4.005-7.227-3.542-13.841a15.4,15.4,0,0,1,7.9-2.484,9.725,9.725,0,0,1,4.92,1.275A7.971,7.971,0,0,1,103.357,134.183Z" transform="translate(-1.417 -1.422)"/>
    <path class="cls-1" d="M112.341,128.266l0-.372c0.007-1.158.013-2.336,0.013-3.553a1.419,1.419,0,1,0-2.839,0c0,1.212-.007,2.385-0.013,3.539l0,0.429c-0.025,4.882-.049,9.493.286,15.269a1.422,1.422,0,0,0,1.417,1.337l0.084,0a1.422,1.422,0,0,0,1.336-1.5C112.292,137.725,112.316,133.158,112.341,128.266Z" transform="translate(-1.417 -1.422)"/>
    <path class="cls-1" d="M135.13,122.458a1.407,1.407,0,0,0-.57.12,1.422,1.422,0,0,0-.73,1.872c1.937,4.406,1.766,9.858-.425,13.568a7.823,7.823,0,0,1-6.169,4.019q-0.419.038-.815,0.038a6.026,6.026,0,0,1-4.718-2.046c-3.226-3.566-3.557-10.99-2.762-15.123a1.423,1.423,0,0,0-1.128-1.663,1.46,1.46,0,0,0-.266-0.025,1.424,1.424,0,0,0-1.4,1.152c-0.843,4.386-.654,13.032,3.445,17.564a8.838,8.838,0,0,0,6.826,2.98c0.349,0,.7-0.016,1.067-0.048a10.526,10.526,0,0,0,8.36-5.4c2.634-4.457,2.867-10.949.581-16.154A1.421,1.421,0,0,0,135.13,122.458Z" transform="translate(-1.417 -1.422)"/>
    <path class="cls-1" d="M25.458,106.315a1.42,1.42,0,0,0-1.3,1.991,53.088,53.088,0,0,1,3.812,16.873,78.409,78.409,0,0,1-15.13,1.337,72.568,72.568,0,0,1-8.534-.456A60.106,60.106,0,0,1,6.8,109.047a1.42,1.42,0,1,0-2.7-.871c-3.016,9.366-3.519,22.716-1.345,35.712a1.415,1.415,0,0,0,1.4,1.184,1.348,1.348,0,0,0,.235-0.019,1.419,1.419,0,0,0,1.167-1.633,95.525,95.525,0,0,1-1.258-14.5,75.681,75.681,0,0,0,8.6.447,81.651,81.651,0,0,0,15.212-1.325,41.4,41.4,0,0,1-2.17,15.112,1.42,1.42,0,1,0,2.66.993c4.3-11.5,2.261-27.637-1.839-36.984A1.421,1.421,0,0,0,25.458,106.315Z" transform="translate(-1.417 -1.422)"/>
    <path class="cls-1" d="M153.119,132.371a29.111,29.111,0,0,0-3.6-1.037c-2.2-.54-5.224-1.278-5.775-2.5a2.23,2.23,0,0,1,.341-1.876,3.8,3.8,0,0,1,2.7-1.929,7.1,7.1,0,0,1,1.549-.161,9.06,9.06,0,0,1,4.773,1.316,1.419,1.419,0,1,0,1.722-2.257,11.612,11.612,0,0,0-6.513-1.9,9.9,9.9,0,0,0-2.15.225,6.6,6.6,0,0,0-4.6,3.387,4.858,4.858,0,0,0-.411,4.36c1.121,2.478,4.459,3.3,7.687,4.086a26.956,26.956,0,0,1,3.229.92c1.613,0.636,2.489,1.773,2.4,3.12a4.289,4.289,0,0,1-3.526,3.606,11.5,11.5,0,0,1-2.808.332c-3.316,0-6.361-1.248-6.933-2.844a1.42,1.42,0,0,0-2.674.96c1.164,3.244,5.792,4.721,9.6,4.721a14.317,14.317,0,0,0,3.512-.417,7.121,7.121,0,0,0,5.661-6.176C157.479,135.7,155.912,133.473,153.119,132.371Z" transform="translate(-1.417 -1.422)"/>
    <path class="cls-1" d="M50.075,32.376a4.675,4.675,0,0,0,.86-0.083,3.283,3.283,0,0,0,2.536-2.185,3.463,3.463,0,0,0-.808-3.9,2.379,2.379,0,0,0-.864-0.448,4.19,4.19,0,0,0-1.157-3.518A1.215,1.215,0,1,0,49,24.033a2.1,2.1,0,0,1,.338,1.873,4.6,4.6,0,0,0-1.247.927,3.553,3.553,0,0,0-.857,3.841A2.929,2.929,0,0,0,50.075,32.376Zm1.261-3.985a0.844,0.844,0,0,1-.115.806,1.132,1.132,0,0,1-.973.757,1.2,1.2,0,0,1-.139-0.009,0.751,0.751,0,0,1-.651-0.253,1.226,1.226,0,0,1,.381-1.167,0.436,0.436,0,0,0,.071-0.072,0.973,0.973,0,0,1,.777-0.355A0.748,0.748,0,0,1,51.335,28.391Z" transform="translate(-1.417 -1.422)"/>
    <path class="cls-1" d="M93.737,30.018a2.806,2.806,0,0,0,2.424-1.453,3.481,3.481,0,0,0,.383-3.662A2.865,2.865,0,0,0,94.7,23.575a9.748,9.748,0,0,1,.341-1.946,1.215,1.215,0,0,0-.829-1.505,1.213,1.213,0,0,0-1.506.829,12.69,12.69,0,0,0-.441,2.557A2.592,2.592,0,0,0,90.7,24.733a3.563,3.563,0,0,0-.23,2.8A3.716,3.716,0,0,0,93.737,30.018Zm0.351-2.725a0.431,0.431,0,0,1-.351.293,1.371,1.371,0,0,1-.986-0.9,0.709,0.709,0,0,1,.13-0.821,0.747,0.747,0,0,1,.484-0.121,1.607,1.607,0,0,1,1.058.34A1.5,1.5,0,0,1,94.089,27.293Z" transform="translate(-1.417 -1.422)"/>
    <path class="cls-1" d="M50.817,36.056l-0.107,0a1.193,1.193,0,0,0-1.179,1.168A1.216,1.216,0,0,0,50.7,38.484c0.373,0.015.752,0.022,1.135,0.022,1.114,0,2.26-.055,3.434-0.111,1.088-.053,2.212-0.107,3.288-0.107a18.071,18.071,0,0,1,3.141.23,1.177,1.177,0,0,0,.216.02,1.216,1.216,0,0,0,1-1.911,1.2,1.2,0,0,0-.782-0.5,20.4,20.4,0,0,0-3.573-.269c-1.137,0-2.3.056-3.423,0.111-1.089.053-2.214,0.108-3.29,0.108C51.486,36.074,51.137,36.068,50.817,36.056Z" transform="translate(-1.417 -1.422)"/>
    <path class="cls-1" d="M83.321,36.246l0.129-.007c0.413-.038.841-0.055,1.277-0.055a41.1,41.1,0,0,1,5.163.461c1.5,0.2,3.05.4,4.506,0.46l0.071,0a1.216,1.216,0,0,0,.049-2.431c-1.374-.056-2.867-0.253-4.312-0.442a42.813,42.813,0,0,0-5.465-.483c-0.534,0-1.045.022-1.518,0.067A1.216,1.216,0,0,0,83.321,36.246Z" transform="translate(-1.417 -1.422)"/>
    <path class="cls-1" d="M59.638,41.152c0.211-.019.419-0.036,0.623-0.049a1.216,1.216,0,0,0,1.133-1.294A1.234,1.234,0,0,0,60.1,38.676h0a51.67,51.67,0,0,0-8.19,1.332,1.215,1.215,0,0,0,.3,2.393,1.192,1.192,0,0,0,.3-0.037c1.317-.336,3.044-0.673,4.694-0.917l0,0.017A7.075,7.075,0,0,0,64.4,47.115q0.247,0,.5-0.013a9.432,9.432,0,0,0,7.4-4.178,8.692,8.692,0,0,0,6.85,3.2,9.249,9.249,0,0,0,1.248-.084,8.574,8.574,0,0,0,7.319-6.508c1.618,0.378,3.3.853,4.578,1.294a1.232,1.232,0,0,0,.394.066,1.216,1.216,0,0,0,.4-2.365,51.4,51.4,0,0,0-8.062-2,1.309,1.309,0,0,0-.162-0.01,1.214,1.214,0,0,0-.19,2.416c0.218,0.033.442,0.069,0.667,0.109a6.079,6.079,0,0,1-5.27,4.591,6.677,6.677,0,0,1-.9.06,6.156,6.156,0,0,1-5.42-3,4.647,4.647,0,0,0,1.865-4.929,3.157,3.157,0,0,0-3.053-2.312,4.744,4.744,0,0,0-3.026,1.265A3.314,3.314,0,0,0,68.4,38.306a4.067,4.067,0,0,0,2.31,2.2c-0.719,2.544-3.544,4.042-5.944,4.17-0.12.006-.239,0.009-0.357,0.009A4.633,4.633,0,0,1,59.638,41.152Zm12.924-5.267a0.738,0.738,0,0,1,.728.587,2.185,2.185,0,0,1-.838,2.151l-0.141-.062a3.5,3.5,0,0,1-1.6-1.005,0.887,0.887,0,0,1,.193-0.8A2.775,2.775,0,0,1,72.562,35.885Z" transform="translate(-1.417 -1.422)"/>
    <path class="cls-1" d="M116.222,80.377a24.563,24.563,0,0,0,4.916-.7c0.564-.123,1.07-0.231,1.477-0.3,7.725-1.218,16.421-3.039,21.834-9.275,2.7-3.109,5.211-8.651,4.79-13.229a8,8,0,0,0-2.972-5.774,9.154,9.154,0,0,0-5.776-1.926,15.058,15.058,0,0,0-11.909,6.642,16.764,16.764,0,0,0-1.918,6.808c-0.3,2.233-.578,4.343-1.733,5.9a11.165,11.165,0,0,1-7.993,4.383,207.406,207.406,0,0,0,.68-23.535l-0.026-2.837c-0.079-9.366-1.74-19.55-3.078-27.746a29.144,29.144,0,0,1,.2-7.359c0.439-4.065.853-7.9-1.561-9.641a1.139,1.139,0,0,0-.263-0.144,3.255,3.255,0,0,0-1.216-.225c-2.279,0-5.128,2.149-8.428,4.638-2.948,2.223-6.289,4.743-9.379,5.8a14.541,14.541,0,0,1-4.659.613,71.255,71.255,0,0,1-8.626-.763,64.888,64.888,0,0,0-7.785-.7H72.672c-1.543.009-4.875,0.35-8.4,0.711-4.148.425-8.849,0.906-11.224,0.906a4.866,4.866,0,0,1-1.1-.067C49.694,11.814,48,9.607,46.364,7.471c-1.892-2.465-3.68-4.794-6.441-4.8a2.959,2.959,0,0,0-2.166.962c-3.252,3.316-3.27,16.1-2.973,31.209,0.048,2.42.092,4.7,0.1,6.613,0.012,3.455.406,17.085,1.572,30.435,2.229,25.5,5.232,25.823,6.666,25.974a3.537,3.537,0,0,0,.439.028c4.16,0,6.267-7.465,6.819-9.773a157.486,157.486,0,0,0,22.579,1.623c1.756,0,3.714-.021,5.987-0.065A58.013,58.013,0,0,0,89.914,87.87a57.115,57.115,0,0,1,9.331-1.639c0.119-.005.233-0.008,0.345-0.008,2.9,0,3.533,1.717,3.94,5.824,0.217,2.193.488,4.923,2.9,5.228a1.358,1.358,0,0,0,.177.011,2.479,2.479,0,0,0,1.269-.437c4.8-3.32,7.334-13.623,7.957-16.484C115.959,80.373,116.088,80.377,116.222,80.377Zm24.268-28.77a6.658,6.658,0,0,1,4.262,1.4,5.655,5.655,0,0,1,2.065,4.093c0.355,3.857-1.9,8.759-4.2,11.413-4.875,5.617-12.739,7.264-20.376,8.469-0.444.07-1,.187-1.629,0.323a23.129,23.129,0,0,1-4.323.643c0.231-1.393.342-2.15,0.389-2.571a13.633,13.633,0,0,0,10.21-5.4c1.528-2.063,1.865-4.588,2.191-7.042a14.989,14.989,0,0,1,1.578-5.845A12.437,12.437,0,0,1,140.49,51.608ZM105.949,91.8c-0.3-2.994-.794-8-6.388-8q-0.207,0-.426.009a58.833,58.833,0,0,0-9.773,1.7A56.2,56.2,0,0,1,78.9,87.25c-2.257.045-4.2,0.065-5.967,0.065a158.556,158.556,0,0,1-23.345-1.746,1.185,1.185,0,0,0-.169-0.012,1.211,1.211,0,0,0-1.188,1c-0.754,4.121-2.957,8.911-4.668,8.911-0.042,0-.085,0-0.121-0.006-0.105-.042-2.594-1.269-4.561-23.779-0.434-4.974-.8-10.394-1.085-16.12a29.266,29.266,0,0,0,9.276,1.46A25.716,25.716,0,0,0,50,56.861a1.224,1.224,0,0,0,1.01-.807A3.415,3.415,0,0,1,53.6,53.79a1.9,1.9,0,0,1,.474.058,1.975,1.975,0,0,1-.569.649,1.216,1.216,0,0,0-.282,1.593,1.2,1.2,0,0,0,.768.54,1.283,1.283,0,0,0,.284.033,1.158,1.158,0,0,0,.5-0.111,3.078,3.078,0,0,1,.986-0.293,1.672,1.672,0,0,1,.192-0.011c0.106,0,.178.012,0.213,0.012,0.015,0,.022,0,0.023-0.008a1.569,1.569,0,0,1-.719,1.067,4.349,4.349,0,0,1-.366.268,1.216,1.216,0,0,0,1.28,2.067l0.028-.016a1.466,1.466,0,0,1-.174.339,1.247,1.247,0,0,1-.27.3,2.192,2.192,0,0,1-.83.4,5.1,5.1,0,0,1-1.288.119l-0.69,0a9.052,9.052,0,0,0-1.2.067l-1.784.246a50.849,50.849,0,0,1-7.24.67c-0.546,0-1.1-.016-1.732-0.053a1.215,1.215,0,0,0-.086,2.428q0.94,0.058,1.837.056a53.667,53.667,0,0,0,7.659-.709c0.55-.077,1.1-0.156,1.666-0.23a7.05,7.05,0,0,1,.912-0.044l0.707,0.005a6.894,6.894,0,0,0,2.039-.253c2.332,3.207,6.11,5.993,9.471,8.47,2.674,1.972,5.2,3.835,6.583,5.568a1.237,1.237,0,0,0,1.014.458H73.02a1.218,1.218,0,0,0,.96-0.57c0.909-1.451,3.66-3.077,6.571-4.8,3.926-2.322,8.79-5.2,11-9L91.6,63.111c0.137,0.013.268,0.019,0.4,0.019a4.771,4.771,0,0,0,2.562-.872c0.172-.1.349-0.207,0.545-0.3l0.338-.168a4.077,4.077,0,0,1,1.827-.546L98.8,61.03a44.737,44.737,0,0,0,10.725-2.335,1.216,1.216,0,0,0,.723-1.561,1.215,1.215,0,0,0-1.561-.721,42.893,42.893,0,0,1-10.228,2.21l-1.527.212a6.307,6.307,0,0,0-2.577.777l-0.327.162c-0.28.137-.537,0.288-0.786,0.437a2.356,2.356,0,0,1-1.284.475l-0.125,0a1,1,0,0,1-.8-0.648,1.077,1.077,0,0,1,.206-0.054,1.221,1.221,0,0,0,.99-1.387,1.207,1.207,0,0,0-1.2-1.027c-0.055,0-.113,0-0.24.016l-0.106,0q-0.131.012-.254,0.012a1.1,1.1,0,0,1-.94-0.334,0.613,0.613,0,0,1,0-.647,0.939,0.939,0,0,1,.771-0.385c0.054,0,.107-0.007.205-0.007l0.194,0a1.216,1.216,0,0,0,.386-2.369,2.048,2.048,0,0,1-1.132-.906,1.182,1.182,0,0,1,.192-0.1,2.33,2.33,0,0,1,.418-0.134,1.692,1.692,0,0,1,.36-0.035,5.923,5.923,0,0,1,3.8,1.9,1.225,1.225,0,0,0,.96.469,1.21,1.21,0,0,0,.328-0.045,39.052,39.052,0,0,1,4.011-.732c4.409-.67,10.952-1.665,15.2-4.943V49.4a201.29,201.29,0,0,1-.716,23.7c-0.067.621-.85,5.995-0.931,6.389-1.19,5.851-3.752,12.812-6.794,15.178a0.333,0.333,0,0,1-.192.077,0.146,0.146,0,0,1-.029,0C106.213,94.464,106.1,93.306,105.949,91.8ZM39.919,5.106h0.108c1.457,0,2.823,1.78,4.409,3.845,1.775,2.313,3.786,4.934,6.748,5.915a6.136,6.136,0,0,0,1.861.191c2.5,0,7.268-.488,11.472-0.919,3.466-.355,6.74-0.689,8.166-0.7h0.112a63.534,63.534,0,0,1,7.49.684,72.714,72.714,0,0,0,8.921.781,16.84,16.84,0,0,0,5.447-.745c3.463-1.188,6.965-3.83,10.068-6.171,2.7-2.035,5.49-4.139,6.951-4.139a1.082,1.082,0,0,1,.185.015c1.113,1.041.77,4.224,0.438,7.3a30.751,30.751,0,0,0-.182,8.013c1.295,7.929,2.9,17.786,3.034,26.867-3.372,3.987-10.674,5.1-15.521,5.837-1.323.2-2.577,0.39-3.575,0.612a8.386,8.386,0,0,0-5.16-2.235,4.142,4.142,0,0,0-.886.092,4.242,4.242,0,0,0-1.337.519,11.118,11.118,0,0,0-6.009-1.7c-3.2,0-7.617,1.4-9.927,5.279a13.246,13.246,0,0,0-10.665-5.6,8.755,8.755,0,0,0-6.384,2.426,5.888,5.888,0,0,0-.388.443,3.912,3.912,0,0,0-1.717-.363,5.548,5.548,0,0,0-4.543,3.155c-0.622.05-1.278,0.075-1.953,0.075a26.114,26.114,0,0,1-9.157-1.562s-0.117-.046-0.254-0.092c-0.234-5.234-.348-9.606-0.354-11.485-0.007-1.925-.052-4.221-0.1-6.652-0.2-9.949-.527-26.6,2.276-29.459A0.573,0.573,0,0,1,39.919,5.106Zm49.49,56.863c-1.867,3.178-6.232,5.758-10.1,8.041a34.12,34.12,0,0,0-6.4,4.384,52.747,52.747,0,0,0-6.072-4.919c-3.158-2.329-6.724-4.958-8.841-7.81a3.176,3.176,0,0,0,.505-3.709,2.089,2.089,0,0,0-.231-0.285,2.777,2.777,0,0,0,.041-2.6A2.452,2.452,0,0,0,56.751,53.9a4.131,4.131,0,0,1,.675-0.932,6.365,6.365,0,0,1,4.64-1.689,10.6,10.6,0,0,1,9.67,6.405,1.233,1.233,0,0,0,1.185.743h0.006a1.214,1.214,0,0,0,1.1-.88c1.173-4.106,5.181-5.943,8.632-5.943a8.632,8.632,0,0,1,4.813,1.375,2.914,2.914,0,0,0,.608,1.608,3.081,3.081,0,0,0-.6,4.037,3.018,3.018,0,0,0,1.136,1.01,2.443,2.443,0,0,0-.022.439A3.051,3.051,0,0,0,89.409,61.969Z" transform="translate(-1.417 -1.422)"/>
  </g>
</svg>
