<svg id="Слой_1" data-name="Слой 1" xmlns="http://www.w3.org/2000/svg" viewBox="0 0 46.69 46.69">
  <defs>
    <style>
      .cls-1 {
        fill: #a3d9dd;
      }

      .cls-2 {
        fill: #fff;
      }
    </style>
  </defs>
  <title>up_button</title>
  <g>
    <circle class="cls-1" cx="23.345" cy="23.345" r="23.345"/>
    <path class="cls-2" d="M37.2,20.861L25.076,7.825a1.451,1.451,0,0,0-2.125,0L10.828,20.861a1.451,1.451,0,0,0,.074,2.05L11.316,23.3a1.451,1.451,0,0,0,2.052-.074L22.1,13.829V39.21a1.451,1.451,0,0,0,1.451,1.451h0.918A1.451,1.451,0,0,0,25.92,39.21V13.822l8.735,9.4a1.451,1.451,0,0,0,2.052.074l0.414-.386A1.451,1.451,0,0,0,37.2,20.861Z" transform="translate(-0.667 -0.667)"/>
  </g>
</svg>
